#N canvas 0 0 1280 718 10;
#X obj 117 130 bng 25 250 50 0 empty empty empty 17 7 0 10 -262144
-1 -1;
#X obj -166 155 openpanel;
#X msg -166 177 read -resize \$1 array1;
#X obj -166 200 soundfiler;
#X obj 698 337 expr 44100 / $f1;
#X obj 126 182 hsl 128 15 0 1 0 1 empty empty empty -2 -8 0 10 -262144
-1 -1 12700 1;
#X obj 127 227 hsl 128 15 0 1 0 0 empty empty empty -2 -8 0 10 -262144
-1 -1 0 1;
#X obj 833 345 -;
#X text 116 163 der;
#X text 119 212 izq;
#X obj 696 203 t f b;
#X obj 683 379 *;
#X obj 600 362 expr 1 / $f1;
#X floatatom 862 362 5 0 0 0 - - -;
#X obj 833 316 f;
#X obj -166 223 s \$0-samplesize;
#X obj 698 313 r \$0-samplesize;
#X obj 683 408 f;
#X floatatom 683 430 5 0 0 0 - - -;
#X obj 123 314 hsl 155 15 -2 2 0 1 empty empty empty -2 -8 0 10 -262144
-1 -1 11550 1;
#X obj 683 454 *;
#X obj 510 437 t f b;
#X obj 683 497 phasor~;
#X obj 684 524 +~;
#X obj 684 548 *~;
#X obj 833 531 *;
#X obj 848 510 r \$0-samplesize;
#X obj 696 279 s \$0-limite_izq;
#X obj 861 328 r \$0-limite_izq;
#X obj 732 507 r \$0-limite_izq;
#X obj 684 580 tabread4~ array1;
#X obj 685 669 *~;
#X obj 699 624 \$1 20;
#X obj 699 646 line~;
#X obj 319 407 s \$0-amplitud;
#X obj 699 602 r \$0-amplitud;
#N canvas 0 0 450 300 (subpatch) 0;
#X array array1 180800 float 2;
#X coords 0 1 180800 -1 200 140 1;
#X restore 349 196 graph;
#X obj 352 338 hsl 195 15 0 1 0 0 empty empty empty -2 -8 0 10 -262144
-1 -1 0 1;
#X obj 800 565 /~;
#X obj 801 647 +~;
#X obj 951 685 s \$0-posicion;
#X obj 573 321 r \$0-posicion;
#X msg 67 297 1;
#X floatatom -237 217 10 0 0 0 - - -;
#X obj 425 120 output~;
#X obj 859 548 r \$0-samplesize;
#X obj 816 623 r \$0-limite_izq;
#X obj 573 156 tgl 15 0 empty empty empty 17 7 0 10 -262144 -1 -1 0
1;
#X obj 573 177 switch~;
#X obj 918 663 vsnapshot~;
#X obj 918 613 tgl 15 1 empty empty empty 17 7 0 10 -262144 -1 -1 1
1;
#X floatatom 918 686 5 0 0 0 - - -;
#X floatatom 918 731 5 0 0 0 - - -;
#X obj 918 709 >= 0.98;
#X obj 319 198 vsl 29 135 0.01 1 1 0 empty empty empty 0 -9 0 10 -262144
-1 -1 0 1;
#X obj -45 197 s \$0-fader_derecha;
#X obj 833 292 r \$0-fader_derecha;
#X obj -48 242 s \$0-fader_izquierda;
#X obj 696 179 r \$0-fader_izquierda;
#X obj -147 343 s \$0-reset-velocidad;
#X obj 267 282 bng 15 250 50 0 empty empty empty 17 7 0 10 -262144
-1 -1;
#X text 221 296 normal;
#X obj 769 132 tgl 25 0 empty empty empty 17 7 0 10 -262144 -1 -1 0
1;
#X obj 573 132 r master-switch-audio;
#X floatatom 77 408 5 0 0 0 - - -;
#X obj 120 414 s \$0-fader_velocidad;
#X obj 510 406 r \$0-fader_velocidad;
#X obj 918 632 metro 5;
#X obj 67 277 del 3;
#X msg 47 165 1;
#X obj -5 172 bng 15 250 50 0 empty empty empty 17 7 0 10 -262144 -1
-1;
#X text 171 153 limites;
#X text 114 277 velocidad / reverse;
#X text 294 177 volumen;
#X text 256 266 reset;
#X obj 685 700 outlet~;
#X text 108 110 Cargar Waw;
#X obj 739 685 s~ input_fiddle_reproductor;
#X obj 450 54 r~ input_fiddle_reproductor;
#X obj -2 280 loadbang;
#X obj 508 124 tgl 32 0 empty empty On/Off 1 18 0 9 -262144 -258113
-258113 0 1;
#X connect 0 0 1 0;
#X connect 1 0 2 0;
#X connect 1 0 70 0;
#X connect 2 0 3 0;
#X connect 3 0 15 0;
#X connect 3 0 43 0;
#X connect 4 0 11 1;
#X connect 5 0 55 0;
#X connect 6 0 57 0;
#X connect 7 0 12 0;
#X connect 7 0 13 0;
#X connect 7 0 25 0;
#X connect 10 0 27 0;
#X connect 10 1 14 0;
#X connect 11 0 17 0;
#X connect 12 0 11 0;
#X connect 14 0 7 0;
#X connect 16 0 4 0;
#X connect 17 0 18 0;
#X connect 18 0 20 0;
#X connect 19 0 64 0;
#X connect 19 0 65 0;
#X connect 20 0 22 0;
#X connect 21 0 20 1;
#X connect 21 1 17 0;
#X connect 22 0 23 0;
#X connect 23 0 24 0;
#X connect 24 0 38 0;
#X connect 24 0 30 0;
#X connect 25 0 24 1;
#X connect 26 0 25 1;
#X connect 28 0 7 1;
#X connect 29 0 23 1;
#X connect 30 0 31 0;
#X connect 31 0 75 0;
#X connect 31 0 77 0;
#X connect 32 0 33 0;
#X connect 33 0 31 1;
#X connect 35 0 32 0;
#X connect 38 0 39 0;
#X connect 39 0 49 0;
#X connect 41 0 37 0;
#X connect 42 0 19 0;
#X connect 45 0 38 1;
#X connect 46 0 39 1;
#X connect 47 0 48 0;
#X connect 49 0 51 0;
#X connect 49 0 40 0;
#X connect 50 0 67 0;
#X connect 51 0 53 0;
#X connect 53 0 52 0;
#X connect 54 0 34 0;
#X connect 56 0 14 0;
#X connect 58 0 10 0;
#X connect 60 0 42 0;
#X connect 60 0 68 0;
#X connect 62 0 47 0;
#X connect 63 0 47 0;
#X connect 66 0 21 0;
#X connect 67 0 49 0;
#X connect 68 0 42 0;
#X connect 69 0 5 0;
#X connect 70 0 69 0;
#X connect 78 0 44 0;
#X connect 78 0 44 1;
#X connect 79 0 42 0;
#X connect 80 0 47 0;
#X coords 0 -1 1 1 450 300 1 100 100;
