#N canvas -1928 -8 1904 996 10;
#X obj 309 503 osc~;
#X obj 309 535 *~;
#X obj 309 472 r freq-parcial-1;
#X obj 342 518 r amplitud-parcial-1;
#X obj 552 660 dac~;
#X obj 479 502 osc~;
#X obj 479 534 *~;
#X obj 479 467 r freq-parcial-2;
#X obj 513 517 r amplitud-parcial-2;
#X obj 653 503 osc~;
#X obj 653 535 *~;
#X obj 653 468 r freq-parcial-3;
#X obj 683 519 r amplitud-parcial-3;
#X obj 824 500 osc~;
#X obj 824 532 *~;
#X obj 824 469 r freq-parcial-4;
#X obj 857 515 r amplitud-parcial-4;
#X obj 892 51 mtof;
#X obj 892 76 phasor~;
#X floatatom 892 29 5 0 0 0 - - -, f 5;
#X obj 892 161 s~ input_fiddle_phasor;
#X obj 264 300 interfaz_fiddle;
#X obj 893 118 *~;
#X obj 971 103 tgl 15 0 empty empty empty 17 7 0 10 -262144 -1 -1 0
1;
#X obj 265 -4 full-reproductor;
#X obj 96 53 fiddle-motor;
#X connect 0 0 1 0;
#X connect 1 0 4 0;
#X connect 1 0 4 1;
#X connect 2 0 0 0;
#X connect 3 0 1 1;
#X connect 5 0 6 0;
#X connect 6 0 4 0;
#X connect 6 0 4 1;
#X connect 7 0 5 0;
#X connect 8 0 6 1;
#X connect 9 0 10 0;
#X connect 10 0 4 0;
#X connect 10 0 4 1;
#X connect 11 0 9 0;
#X connect 12 0 10 1;
#X connect 13 0 14 0;
#X connect 14 0 4 0;
#X connect 14 0 4 1;
#X connect 15 0 13 0;
#X connect 16 0 14 1;
#X connect 17 0 18 0;
#X connect 18 0 22 0;
#X connect 19 0 17 0;
#X connect 22 0 20 0;
#X connect 23 0 22 1;
