#N canvas 724 373 450 300 10;
#X obj 187 78 unpack;
#X obj 100 177 nbx 4 14 -1e+037 1e+037 0 0 empty empty empty 0 -8 0
10 -257985 -1 -1 0 256;
#X obj 100 154 change;
#X obj 220 143 nbx 5 14 -1e+037 1e+037 0 0 empty empty empty 0 -8 0
10 -4032 -1 -1 0 256;
#X obj 144 158 r reset;
#X obj 238 121 r reset;
#X obj 187 55 inlet;
#X obj 100 209 s freq-parcial-\$1;
#X obj 220 210 s amplitud-parcial-\$1;
#X obj 220 167 mavg 4;
#X floatatom 220 185 5 0 0 0 - - -;
#X obj 100 95 redondeo;
#X connect 0 0 11 0;
#X connect 0 1 3 0;
#X connect 1 0 7 0;
#X connect 2 0 1 0;
#X connect 3 0 9 0;
#X connect 4 0 1 0;
#X connect 5 0 3 0;
#X connect 6 0 0 0;
#X connect 9 0 10 0;
#X connect 10 0 8 0;
#X connect 11 0 2 0;
